<?xml version="1.0" encoding="utf-8"?>
<!-- Generator: Adobe Illustrator 24.0.3, SVG Export Plug-In . SVG Version: 6.00 Build 0)  -->
<svg version="1.1" id="Layer_1" xmlns="http://www.w3.org/2000/svg" xmlns:xlink="http://www.w3.org/1999/xlink" x="0px" y="0px"
	 viewBox="0 0 1124.37 512" style="enable-background:new 0 0 1124.37 512;" xml:space="preserve">
<style type="text/css">
	.st0{fill:none;}
</style>
<g id="_x34_PJmpc_1_">
	<g>
		<g>
			<path d="M437.1,419.3v-4.67l-25.34-3.68l-26.26-53.19l-26.26,53.19l-58.68,8.53l42.47,41.37l-5.62,32.81h25.33
				C403.8,493.66,437.1,460.37,437.1,419.3z"/>
			<path d="M321.28,467.95l-44.62-43.48c-8.02-7.81-3.59-21.45,7.47-23.05l61.68-8.99l27.57-55.9c4.98-10.09,19.29-9.96,24.23,0
				l27.57,55.9l11.91,1.74V166.48h-89.23v-29.74c0-65.6-53.37-118.98-118.98-118.98c-65.6,0-118.98,53.37-118.98,118.98v29.74H20.68
				V419.3c0,41.07,33.29,74.36,74.36,74.36h221.83L321.28,467.95z M318.12,203.66c12.32,0,22.31,9.99,22.31,22.31
				s-9.99,22.31-22.31,22.31s-22.31-9.99-22.31-22.31S305.8,203.66,318.12,203.66z M139.65,248.28c-12.32,0-22.31-9.99-22.31-22.31
				s9.99-22.31,22.31-22.31s22.31,9.99,22.31,22.31S151.97,248.28,139.65,248.28z M169.4,136.73c0-32.8,26.69-59.49,59.49-59.49
				s59.49,26.69,59.49,59.49v29.74H169.4V136.73z"/>
		</g>
		<g>
			<g>
				<path d="M541.5,339.37c-8.05,0-15.3-1.4-21.76-4.21c-6.46-2.81-11.95-6.8-16.48-11.99c-4.53-5.19-7.98-11.45-10.36-18.78
					c-2.38-7.33-3.57-15.53-3.57-24.58c0-11.96,2.08-22.41,6.23-31.33c4.16-8.92,10.13-15.84,17.91-20.77
					c7.78-4.92,17.13-7.39,28.03-7.39c12.18,0,22.09,2.85,29.74,8.54c7.65,5.69,12.98,13.33,16,22.91l-11.75,2.86
					c-2.49-6.99-6.58-12.57-12.27-16.76c-5.69-4.18-12.77-6.27-21.24-6.27c-8.95-0.05-16.39,1.95-22.32,6
					c-5.93,4.05-10.39,9.72-13.38,16.99c-2.99,7.28-4.51,15.69-4.57,25.22c-0.05,9.53,1.42,17.91,4.41,25.14
					c2.99,7.23,7.48,12.89,13.46,16.99c5.98,4.1,13.45,6.18,22.4,6.23c8.21,0,14.98-1.59,20.33-4.77
					c5.35-3.18,9.41-7.73,12.19-13.66c2.78-5.93,4.35-12.95,4.73-21.05h-26.37V278.7h38.6c0.16,1.22,0.25,2.5,0.28,3.85
					c0.03,1.35,0.04,2.32,0.04,2.9c0,10.32-1.85,19.55-5.56,27.68c-3.71,8.13-9.28,14.53-16.72,19.22
					C562.06,337.03,552.72,339.37,541.5,339.37z"/>
				<path d="M607.65,336.99V222.63h71.48v11.2h-59.8v39.55h50.27v11.2h-50.27v41.22h59.8v11.2H607.65z"/>
				<path d="M698.19,336.99V222.63h71.48v11.2h-59.8v39.55h50.27v11.2h-50.27v41.22h59.8v11.2H698.19z"/>
				<path d="M788.72,336.99V222.63h11.67v54l52.18-54h14.93l-53.29,55.2l57.66,59.17h-15.25l-56.23-57.18v57.18H788.72z"/>
			</g>
			<path d="M535.38,494.24c-7.99,0-15.18-1.34-21.56-4.01c-6.38-2.67-11.65-6.47-15.8-11.4c-4.16-4.92-6.87-10.77-8.14-17.55
				l11.91-1.99c1.91,7.41,5.93,13.22,12.07,17.43c6.14,4.21,13.47,6.31,22,6.31c5.61,0,10.64-0.89,15.09-2.66
				c4.45-1.77,7.94-4.3,10.48-7.58c2.54-3.28,3.81-7.17,3.81-11.67c0-2.96-0.53-5.49-1.59-7.58c-1.06-2.09-2.46-3.82-4.21-5.2
				c-1.75-1.38-3.65-2.53-5.72-3.45c-2.06-0.93-4.08-1.68-6.04-2.26l-28.99-8.66c-3.49-1.01-6.72-2.29-9.69-3.85
				c-2.97-1.56-5.55-3.44-7.74-5.64c-2.2-2.2-3.91-4.78-5.12-7.74c-1.22-2.96-1.83-6.35-1.83-10.17c0-6.46,1.69-12.04,5.08-16.76
				c3.39-4.71,8.02-8.34,13.9-10.88c5.88-2.54,12.57-3.78,20.09-3.73c7.62,0,14.44,1.35,20.45,4.05c6.01,2.7,10.97,6.55,14.89,11.56
				c3.92,5,6.51,10.92,7.78,17.75l-12.23,2.22c-0.79-4.98-2.62-9.29-5.48-12.95c-2.86-3.65-6.5-6.47-10.92-8.46
				c-4.42-1.99-9.28-3-14.57-3.06c-5.14,0-9.7,0.86-13.7,2.58c-4,1.72-7.16,4.06-9.49,7.03c-2.33,2.97-3.49,6.35-3.49,10.17
				c0,3.87,1.07,6.96,3.22,9.29c2.14,2.33,4.79,4.16,7.94,5.48c3.15,1.32,6.21,2.41,9.17,3.26l22.4,6.59
				c2.33,0.64,5.07,1.55,8.22,2.74c3.15,1.19,6.22,2.89,9.21,5.08c2.99,2.2,5.47,5.07,7.43,8.62c1.96,3.55,2.94,8.05,2.94,13.5
				c0,5.3-1.05,10.03-3.14,14.22c-2.09,4.18-5.03,7.7-8.82,10.56c-3.79,2.86-8.21,5.04-13.26,6.55
				C546.89,493.49,541.37,494.24,535.38,494.24z"/>
			<path d="M639.9,494.24c-11.38,0-20.99-2.53-28.83-7.58c-7.84-5.06-13.77-12.06-17.79-21.01c-4.02-8.95-6.04-19.27-6.04-30.97
				c0-11.7,2.01-22.02,6.04-30.97c4.02-8.95,9.95-15.95,17.79-21.01c7.84-5.06,17.44-7.58,28.83-7.58c11.44,0,21.06,2.53,28.87,7.58
				c7.81,5.06,13.74,12.06,17.79,21.01c4.05,8.95,6.07,19.27,6.07,30.97c0,11.7-2.03,22.03-6.07,30.97
				c-4.05,8.95-9.98,15.95-17.79,21.01C660.95,491.71,651.33,494.24,639.9,494.24z M639.9,483.04c8.95,0,16.41-2.04,22.4-6.12
				c5.98-4.08,10.47-9.75,13.46-17.04c2.99-7.28,4.49-15.69,4.49-25.22c0-9.53-1.5-17.92-4.49-25.18c-2.99-7.25-7.48-12.92-13.46-17
				c-5.98-4.08-13.45-6.14-22.4-6.19c-8.95,0-16.39,2.04-22.32,6.11c-5.93,4.08-10.39,9.76-13.38,17.04
				c-2.99,7.28-4.51,15.69-4.57,25.22c-0.05,9.53,1.42,17.91,4.41,25.14c2.99,7.23,7.48,12.89,13.46,16.99
				C623.48,480.91,630.95,482.99,639.9,483.04z"/>
			<path d="M753.15,494.24c-8.74,0-16.45-1.8-23.15-5.4c-6.7-3.6-11.95-8.68-15.76-15.25c-3.81-6.56-5.72-14.24-5.72-23.03v-72.99
				l11.75-0.08v71.56c0,5.93,1.01,11.05,3.02,15.37c2.01,4.32,4.65,7.86,7.9,10.64c3.26,2.78,6.82,4.83,10.68,6.15
				c3.86,1.32,7.62,1.99,11.28,1.99c3.71,0,7.49-0.66,11.36-1.99c3.86-1.32,7.41-3.38,10.64-6.15c3.23-2.78,5.85-6.33,7.86-10.64
				c2.01-4.31,3.02-9.44,3.02-15.37V377.5h11.75v73.06c0,8.79-1.91,16.45-5.72,22.99c-3.81,6.54-9.07,11.62-15.76,15.25
				C769.6,492.43,761.88,494.24,753.15,494.24z"/>
			<path d="M820.02,491.86V377.5h44.16c1.11,0,2.37,0.04,3.77,0.12c1.4,0.08,2.82,0.25,4.25,0.52c5.98,0.9,11.05,2.98,15.21,6.23
				c4.16,3.26,7.31,7.35,9.45,12.27c2.14,4.92,3.22,10.38,3.22,16.36c0,8.63-2.28,16.12-6.83,22.48
				c-4.55,6.35-11.07,10.35-19.54,11.99l-4.05,0.95h-37.96v43.44H820.02z M831.69,437.3h32.16c0.95,0,2.06-0.05,3.34-0.16
				c1.27-0.11,2.51-0.29,3.73-0.56c3.92-0.85,7.13-2.46,9.65-4.84c2.51-2.38,4.39-5.21,5.64-8.5c1.24-3.28,1.87-6.7,1.87-10.25
				c0-3.55-0.62-6.98-1.87-10.28c-1.24-3.31-3.12-6.15-5.64-8.54c-2.52-2.38-5.73-4-9.65-4.84c-1.22-0.26-2.46-0.44-3.73-0.52
				c-1.27-0.08-2.38-0.12-3.34-0.12h-32.16V437.3z M889.27,491.86l-22.55-46.54l11.2-4.29l24.78,50.83H889.27z"/>
			<path d="M964.87,494.24c-11.38,0-20.99-2.53-28.83-7.58c-7.84-5.06-13.77-12.06-17.79-21.01c-4.02-8.95-6.04-19.27-6.04-30.97
				c0-11.7,2.01-22.02,6.04-30.97c4.02-8.95,9.95-15.95,17.79-21.01c7.84-5.06,17.45-7.58,28.83-7.58c13.29,0,24.14,3.4,32.56,10.21
				c8.42,6.8,14.19,15.92,17.31,27.36l-11.91,3.1c-2.44-9.05-6.8-16.23-13.1-21.52c-6.3-5.29-14.59-7.94-24.86-7.94
				c-8.95,0-16.39,2.04-22.32,6.11c-5.93,4.08-10.39,9.76-13.38,17.04c-2.99,7.28-4.54,15.69-4.65,25.22
				c-0.05,9.53,1.42,17.92,4.41,25.18c2.99,7.25,7.49,12.93,13.5,17.04c6.01,4.1,13.49,6.15,22.44,6.15
				c10.27,0,18.56-2.66,24.86-7.98c6.3-5.32,10.67-12.48,13.1-21.48l11.91,3.1c-3.12,11.44-8.9,20.56-17.31,27.36
				C989.02,490.84,978.16,494.24,964.87,494.24z"/>
			<path d="M1032.22,491.86V377.5h71.48v11.2h-59.8v39.55h50.27v11.2h-50.27v41.22h59.8v11.2H1032.22z"/>
		</g>
	</g>
	<line class="st0" x1="-7551" y1="521.03" x2="8832" y2="521.03"/>
</g>
</svg>
